<?xml version="1.0" encoding="UTF-8"?>
<svg width="354px" height="97px" viewBox="0 0 354 97" version="1.1" xmlns="http://www.w3.org/2000/svg" xmlns:xlink="http://www.w3.org/1999/xlink">
    <title>Group 3</title>
    <defs>
        <radialGradient cx="50%" cy="50.4126831%" fx="50%" fy="50.4126831%" r="49.5873169%" id="radialGradient-1">
            <stop stop-color="#FF0000" stop-opacity="0.199352771" offset="0%"></stop>
            <stop stop-color="#FF0000" stop-opacity="0" offset="100%"></stop>
        </radialGradient>
    </defs>
    <g id="Page-1" stroke="none" stroke-width="1" fill="none" fill-rule="evenodd">
        <g id="Custom-Preset---FHD" transform="translate(-423.000000, -1030.000000)">
            <rect id="Rectangle" fill="#FFFFFF" x="216" y="2" width="768" height="3867"></rect>
            <rect id="Rectangle" stroke="#18B0D8" stroke-width="4" fill="#FFFFFF" x="0" y="962" width="1200" height="308"></rect>
            <g id="Group-3" transform="translate(423.000000, 1030.000000)">
                <text id="Hammaslääkäripalvelu" font-family="Noteworthy-Light, Noteworthy" font-size="32" font-weight="300" letter-spacing="1" fill="#333333">
                    <tspan x="70" y="41">Hammaslääkäripalvelu</tspan>
                </text>
                <text id="Juho-Lähteenoja" font-family="Noteworthy-Light, Noteworthy" font-size="36" font-weight="300" letter-spacing="1" fill="#333333">
                    <tspan x="69.5" y="84">Juho Lähteenoja</tspan>
                </text>
                <g id="Group" transform="translate(0.000000, 10.000000)">
                    <path d="M41,1.49885 C43.9792784,1.49885 46.8637095,2.98536219 48.9965028,5.28221647 C51.1116267,7.56004225 52.5,10.6529692 52.5,13.99885 C52.5,15.0210139 52.4156163,16.4608141 52.2575446,18.1606327 L52.2575446,18.1606327 L51.9176034,21.2815067 C51.2800904,25.7895025 50.031048,31.1938224 47.6875049,35.4294568 C47.9869113,43.2968769 47.7451742,54.2787361 46.6353986,63.6673334 C46.0822179,68.3408505 45.3184251,72.5926048 44.2940588,75.7494886 C43.9113524,76.9116845 43.4559162,78.3142998 42.6038178,79.3582412 C42.2715727,79.7652887 41.8704542,80.1123225 41.3666198,80.3307646 C40.9535881,78.5154074 40.5388473,76.5619056 40.1106347,74.5453185 C39.006949,69.3477173 37.813139,63.7367951 36.3394855,58.9640664 C35.2424097,55.4109617 33.9828404,52.3247523 32.5582897,50.1962059 C30.8061722,47.5832384 28.9581576,46.5004 26.99995,46.5004 C24.9923823,46.5004 23.2295315,47.5291168 21.5860224,50.0580131 C20.2590567,52.0998386 19.1230543,55.0995027 18.1484532,58.5990059 C16.9511201,62.9102345 15.9940427,67.9833085 15.0598575,72.9461736 C14.5771458,75.5105833 14.1002236,78.0450634 13.5973435,80.4254995 C13.1768077,80.2872641 12.8259587,79.976775 12.510614,79.6250443 C11.6117798,78.6224986 10.9889828,77.1727362 10.5199824,76.0111855 C9.40204975,73.0062036 8.53400302,68.9347615 7.85868696,64.4047804 C6.49869704,55.2587246 6.01821606,44.2709937 6.49731325,36.2771388 C3.39557708,30.2002563 2.1674715,23.1348796 1.71580218,18.2104413 C1.55468223,14.4512209 1.59685971,11.9303982 1.897396,10.656934 C2.33051521,8.82167541 3.10552313,7.03488174 4.16599987,5.51689046 C5.76203808,3.23879768 8.1032826,1.49983257 11,1.49885 C14.4096943,1.49885 17.4731646,2.12660482 20.1346767,2.66499986 C22.3573096,3.11461439 24.3225904,3.49885 26,3.49885 C27.6774096,3.49885 29.6426904,3.11461439 31.8653233,2.66499986 C34.5268354,2.12660482 37.5903057,1.49885 41,1.49885 Z" id="Path" stroke="#18B0D8" stroke-width="3" fill="#FFFFFF" fill-rule="nonzero"></path>
                    <path d="M12,15.8344079 C12,16.4836906 12.4528747,16.9764902 13.0471055,16.9921772 L13.0998209,16.9921772 L13.1573288,16.9921772 C13.4256995,17 13.4328887,17 13.1860828,17 C13.7947106,17 14.2595653,16.4941368 14.2595653,15.8344205 C14.2595653,14.509768 15.2468012,13.4172166 16.4400843,13.3493953 L16.4999883,13.3441805 L16.5598923,13.3493953 C17.7555678,13.4171899 18.7404113,14.5071646 18.7404113,15.8344205 C18.7404113,16.4967402 19.2028737,17 19.8115015,17 C19.5646987,17 19.571888,17 19.8402561,16.9921772 L19.8977641,16.9921772 C20.1661347,17 20.173324,17 19.9265175,17 C20.5351453,17 21,16.4941368 21,15.8344205 C21,13.1590816 19.0183513,11 16.5575,11 C16.816289,11 16.8019105,11.0052275 16.5119727,11.0078355 L16.4904074,11.0078355 C16.2004689,11.0052275 16.1884889,11 16.44488,11 C13.9816487,11 12,13.1590689 12,15.8344079 Z M33,15.8344205 C33,16.4941301 33.4648547,17 34.0734824,17 C33.8266796,17 33.8338688,17 34.1022363,16.9921772 L34.1597443,16.9921772 C34.4281149,17 34.4353042,17 34.1884983,17 C34.797126,17 35.2595883,16.4967402 35.2595883,15.8344205 C35.2595883,14.509768 36.2468241,13.4172166 37.440107,13.3493953 L37.500011,13.3441805 L37.5599157,13.3493953 C38.755591,13.4171899 39.7404344,14.5071646 39.7404344,15.8344205 C39.7404344,16.4941301 40.205289,17 40.8139167,17 C40.5671139,17 40.5743032,17 40.8426707,16.9921772 L40.9001787,16.9921772 L40.9528946,16.9921772 C41.5471438,16.9765322 42,16.4837039 42,15.8344079 C42,13.1590689 40.0183516,11 37.5575006,11 C37.8162896,11 37.8019111,11.0052148 37.5119733,11.0078228 L37.490408,11.0078228 C37.2004696,11.0052148 37.1884895,11 37.4448813,11 C34.9816484,11 33,13.1590816 33,15.8344205 Z M17,28.1172683 C17,33.5787544 21.2503295,38 26.5,38 C31.7496705,38 36,33.5784352 36,28.1172683 C36,27.483835 35.5373291,27.0025243 34.928427,27.0025243 C34.8541147,27.0025243 34.7797962,27.0100059 34.7102768,27.0249686 C34.2212355,27.1297077 33.854479,27.5636349 33.854479,28.1172403 C33.854479,31.7981109 31.3325604,34.8953386 27.9812329,35.608453 C27.5041831,35.7107022 27.0079738,35.7655616 26.4997116,35.7655616 C22.4555837,35.7655616 19.1451896,32.3216084 19.1451896,28.114744 C19.1451896,27.483807 18.6801253,27 18.0712232,27 C17.4626709,27.0025243 17,27.483835 17,28.1172683 Z" id="Shape" fill="#18B0D8" fill-rule="nonzero"></path>
                    <circle id="Oval" fill="url(#radialGradient-1)" cx="42" cy="24" r="4"></circle>
                    <circle id="Oval" fill="url(#radialGradient-1)" cx="11" cy="24" r="4"></circle>
                </g>
            </g>
        </g>
    </g>
</svg>