<?xml version="1.0" encoding="UTF-8" standalone="no"?>
<!DOCTYPE svg PUBLIC "-//W3C//DTD SVG 1.1//EN" "http://www.w3.org/Graphics/SVG/1.1/DTD/svg11.dtd">
<svg width="100%" height="100%" viewBox="0 0 354 97" version="1.1" xmlns="http://www.w3.org/2000/svg" xmlns:xlink="http://www.w3.org/1999/xlink" xml:space="preserve" xmlns:serif="http://www.serif.com/" style="fill-rule:evenodd;clip-rule:evenodd;">
    <g transform="matrix(1,0,0,1,76.5884,35.3831)">
        <g transform="matrix(32,0,0,32,0,0)">
            <path d="M0.668,-0.79C0.654,-0.78 0.647,-0.775 0.646,-0.774C0.64,-0.768 0.636,-0.76 0.633,-0.751C0.614,-0.704 0.603,-0.573 0.6,-0.359C0.63,-0.352 0.645,-0.342 0.645,-0.329C0.645,-0.32 0.641,-0.311 0.634,-0.3C0.625,-0.297 0.613,-0.292 0.598,-0.285C0.598,-0.248 0.602,-0.195 0.61,-0.124C0.611,-0.12 0.615,-0.107 0.623,-0.086C0.628,-0.07 0.631,-0.058 0.631,-0.051C0.631,-0.041 0.627,-0.031 0.62,-0.021C0.612,-0.011 0.604,-0.006 0.594,-0.006C0.571,-0.006 0.556,-0.023 0.548,-0.056C0.547,-0.06 0.543,-0.087 0.538,-0.136C0.532,-0.184 0.529,-0.216 0.529,-0.23C0.529,-0.245 0.53,-0.259 0.533,-0.273C0.481,-0.272 0.42,-0.265 0.35,-0.251C0.29,-0.24 0.23,-0.228 0.17,-0.215L0.148,-0.193C0.148,-0.161 0.149,-0.129 0.149,-0.096C0.152,-0.047 0.16,-0.015 0.173,-0.001C0.169,0.01 0.164,0.015 0.157,0.015C0.15,0.015 0.141,0.017 0.132,0.021C0.122,0.024 0.115,0.026 0.11,0.026C0.094,0.026 0.084,-0.005 0.08,-0.068C0.078,-0.107 0.077,-0.146 0.076,-0.185L0.068,-0.198C0.064,-0.197 0.063,-0.196 0.063,-0.196C0.052,-0.196 0.042,-0.199 0.033,-0.206C0.023,-0.212 0.019,-0.22 0.019,-0.23C0.019,-0.237 0.023,-0.246 0.03,-0.258C0.038,-0.27 0.045,-0.276 0.053,-0.276C0.054,-0.276 0.056,-0.276 0.059,-0.275C0.062,-0.274 0.065,-0.274 0.066,-0.274C0.066,-0.274 0.068,-0.274 0.073,-0.275C0.073,-0.312 0.074,-0.385 0.074,-0.495C0.074,-0.641 0.084,-0.74 0.104,-0.793C0.113,-0.815 0.128,-0.826 0.149,-0.826C0.162,-0.826 0.175,-0.822 0.188,-0.813C0.2,-0.804 0.206,-0.793 0.206,-0.78C0.206,-0.775 0.203,-0.764 0.195,-0.746C0.187,-0.725 0.182,-0.713 0.181,-0.71C0.159,-0.63 0.148,-0.509 0.148,-0.348C0.148,-0.31 0.155,-0.291 0.169,-0.291C0.173,-0.291 0.195,-0.295 0.235,-0.304C0.325,-0.32 0.385,-0.329 0.415,-0.329C0.423,-0.329 0.435,-0.331 0.453,-0.336C0.471,-0.34 0.489,-0.343 0.506,-0.343C0.523,-0.343 0.531,-0.354 0.53,-0.378L0.528,-0.488C0.526,-0.558 0.529,-0.629 0.538,-0.7C0.55,-0.812 0.573,-0.868 0.605,-0.868C0.622,-0.868 0.637,-0.859 0.65,-0.841C0.661,-0.825 0.667,-0.808 0.668,-0.79Z" style="fill:rgb(51,51,51);fill-rule:nonzero;"/>
        </g>
        <g transform="matrix(32,0,0,32,22.48,0)">
            <path d="M0.42,0.036C0.42,0.048 0.411,0.054 0.393,0.054C0.373,0.054 0.36,0.045 0.356,0.029C0.355,0.026 0.355,0.01 0.355,-0.02C0.355,-0.028 0.354,-0.035 0.351,-0.04C0.305,-0.006 0.254,0.011 0.2,0.011C0.163,0.011 0.126,0.001 0.091,-0.02C0.051,-0.043 0.031,-0.073 0.031,-0.108C0.031,-0.142 0.055,-0.175 0.103,-0.208C0.146,-0.238 0.186,-0.253 0.223,-0.253L0.346,-0.253C0.351,-0.258 0.354,-0.266 0.354,-0.279C0.354,-0.335 0.349,-0.377 0.34,-0.405C0.325,-0.452 0.295,-0.476 0.251,-0.476C0.22,-0.476 0.19,-0.456 0.164,-0.416C0.14,-0.38 0.128,-0.345 0.128,-0.311L0.128,-0.298C0.128,-0.291 0.124,-0.288 0.118,-0.288C0.109,-0.288 0.1,-0.293 0.09,-0.303C0.08,-0.313 0.075,-0.321 0.075,-0.329C0.075,-0.352 0.082,-0.381 0.096,-0.417C0.11,-0.452 0.126,-0.479 0.143,-0.498C0.163,-0.52 0.189,-0.531 0.22,-0.531C0.268,-0.531 0.311,-0.516 0.351,-0.486C0.394,-0.454 0.415,-0.415 0.416,-0.369L0.42,0.036ZM0.354,-0.163C0.354,-0.196 0.328,-0.213 0.276,-0.213C0.235,-0.213 0.2,-0.205 0.169,-0.191C0.13,-0.173 0.11,-0.145 0.11,-0.109C0.11,-0.086 0.12,-0.069 0.141,-0.056C0.159,-0.045 0.18,-0.04 0.204,-0.04C0.24,-0.04 0.274,-0.052 0.306,-0.075C0.338,-0.098 0.354,-0.128 0.354,-0.163Z" style="fill:rgb(51,51,51);fill-rule:nonzero;"/>
        </g>
        <g transform="matrix(32,0,0,32,38.08,0)">
            <path d="M0.605,0.008C0.588,0.018 0.574,0.024 0.565,0.024C0.559,0.024 0.551,0.021 0.54,0.015C0.541,0.002 0.541,-0.021 0.541,-0.053C0.542,-0.082 0.543,-0.104 0.543,-0.12C0.543,-0.377 0.516,-0.505 0.463,-0.505C0.431,-0.505 0.403,-0.465 0.38,-0.385C0.362,-0.321 0.353,-0.267 0.353,-0.223L0.353,-0.098C0.353,-0.091 0.354,-0.081 0.358,-0.069C0.362,-0.057 0.364,-0.048 0.364,-0.043C0.364,-0.036 0.359,-0.029 0.35,-0.023C0.341,-0.016 0.333,-0.013 0.326,-0.013C0.319,-0.013 0.31,-0.018 0.301,-0.028C0.292,-0.039 0.288,-0.048 0.288,-0.055L0.288,-0.306C0.288,-0.333 0.283,-0.367 0.274,-0.408C0.262,-0.459 0.248,-0.485 0.231,-0.485C0.222,-0.485 0.208,-0.473 0.19,-0.45C0.128,-0.37 0.096,-0.272 0.096,-0.155C0.096,-0.141 0.098,-0.12 0.101,-0.092C0.105,-0.064 0.106,-0.043 0.106,-0.03C0.106,-0.005 0.096,0.008 0.075,0.008C0.065,0.008 0.056,0.003 0.049,-0.005C0.045,-0.009 0.042,-0.028 0.038,-0.061C0.033,-0.091 0.031,-0.112 0.031,-0.123L0.031,-0.418C0.031,-0.503 0.041,-0.545 0.061,-0.545C0.07,-0.545 0.078,-0.541 0.087,-0.533C0.096,-0.525 0.1,-0.517 0.1,-0.509C0.1,-0.491 0.097,-0.468 0.093,-0.44C0.088,-0.403 0.085,-0.38 0.084,-0.371L0.09,-0.365C0.106,-0.401 0.122,-0.437 0.138,-0.473C0.16,-0.518 0.187,-0.541 0.218,-0.541C0.261,-0.541 0.298,-0.495 0.33,-0.401C0.338,-0.411 0.349,-0.432 0.361,-0.464C0.374,-0.495 0.385,-0.518 0.395,-0.531C0.411,-0.551 0.43,-0.561 0.454,-0.561C0.476,-0.561 0.501,-0.546 0.529,-0.516C0.58,-0.462 0.605,-0.364 0.605,-0.223L0.605,0.008Z" style="fill:rgb(51,51,51);fill-rule:nonzero;"/>
        </g>
        <g transform="matrix(32,0,0,32,59.4,0)">
            <path d="M0.605,0.008C0.588,0.018 0.574,0.024 0.565,0.024C0.559,0.024 0.551,0.021 0.54,0.015C0.541,0.002 0.541,-0.021 0.541,-0.053C0.542,-0.082 0.543,-0.104 0.543,-0.12C0.543,-0.377 0.516,-0.505 0.463,-0.505C0.431,-0.505 0.403,-0.465 0.38,-0.385C0.362,-0.321 0.353,-0.267 0.353,-0.223L0.353,-0.098C0.353,-0.091 0.354,-0.081 0.358,-0.069C0.362,-0.057 0.364,-0.048 0.364,-0.043C0.364,-0.036 0.359,-0.029 0.35,-0.023C0.341,-0.016 0.333,-0.013 0.326,-0.013C0.319,-0.013 0.31,-0.018 0.301,-0.028C0.292,-0.039 0.288,-0.048 0.288,-0.055L0.288,-0.306C0.288,-0.333 0.283,-0.367 0.274,-0.408C0.262,-0.459 0.248,-0.485 0.231,-0.485C0.222,-0.485 0.208,-0.473 0.19,-0.45C0.128,-0.37 0.096,-0.272 0.096,-0.155C0.096,-0.141 0.098,-0.12 0.101,-0.092C0.105,-0.064 0.106,-0.043 0.106,-0.03C0.106,-0.005 0.096,0.008 0.075,0.008C0.065,0.008 0.056,0.003 0.049,-0.005C0.045,-0.009 0.042,-0.028 0.038,-0.061C0.033,-0.091 0.031,-0.112 0.031,-0.123L0.031,-0.418C0.031,-0.503 0.041,-0.545 0.061,-0.545C0.07,-0.545 0.078,-0.541 0.087,-0.533C0.096,-0.525 0.1,-0.517 0.1,-0.509C0.1,-0.491 0.097,-0.468 0.093,-0.44C0.088,-0.403 0.085,-0.38 0.084,-0.371L0.09,-0.365C0.106,-0.401 0.122,-0.437 0.138,-0.473C0.16,-0.518 0.187,-0.541 0.218,-0.541C0.261,-0.541 0.298,-0.495 0.33,-0.401C0.338,-0.411 0.349,-0.432 0.361,-0.464C0.374,-0.495 0.385,-0.518 0.395,-0.531C0.411,-0.551 0.43,-0.561 0.454,-0.561C0.476,-0.561 0.501,-0.546 0.529,-0.516C0.58,-0.462 0.605,-0.364 0.605,-0.223L0.605,0.008Z" style="fill:rgb(51,51,51);fill-rule:nonzero;"/>
        </g>
        <g transform="matrix(32,0,0,32,79.76,0)">
            <path d="M0.42,0.036C0.42,0.048 0.411,0.054 0.393,0.054C0.373,0.054 0.36,0.045 0.356,0.029C0.355,0.026 0.355,0.01 0.355,-0.02C0.355,-0.028 0.354,-0.035 0.351,-0.04C0.305,-0.006 0.254,0.011 0.2,0.011C0.163,0.011 0.126,0.001 0.091,-0.02C0.051,-0.043 0.031,-0.073 0.031,-0.108C0.031,-0.142 0.055,-0.175 0.103,-0.208C0.146,-0.238 0.186,-0.253 0.223,-0.253L0.346,-0.253C0.351,-0.258 0.354,-0.266 0.354,-0.279C0.354,-0.335 0.349,-0.377 0.34,-0.405C0.325,-0.452 0.295,-0.476 0.251,-0.476C0.22,-0.476 0.19,-0.456 0.164,-0.416C0.14,-0.38 0.128,-0.345 0.128,-0.311L0.128,-0.298C0.128,-0.291 0.124,-0.288 0.118,-0.288C0.109,-0.288 0.1,-0.293 0.09,-0.303C0.08,-0.313 0.075,-0.321 0.075,-0.329C0.075,-0.352 0.082,-0.381 0.096,-0.417C0.11,-0.452 0.126,-0.479 0.143,-0.498C0.163,-0.52 0.189,-0.531 0.22,-0.531C0.268,-0.531 0.311,-0.516 0.351,-0.486C0.394,-0.454 0.415,-0.415 0.416,-0.369L0.42,0.036ZM0.354,-0.163C0.354,-0.196 0.328,-0.213 0.276,-0.213C0.235,-0.213 0.2,-0.205 0.169,-0.191C0.13,-0.173 0.11,-0.145 0.11,-0.109C0.11,-0.086 0.12,-0.069 0.141,-0.056C0.159,-0.045 0.18,-0.04 0.204,-0.04C0.24,-0.04 0.274,-0.052 0.306,-0.075C0.338,-0.098 0.354,-0.128 0.354,-0.163Z" style="fill:rgb(51,51,51);fill-rule:nonzero;"/>
        </g>
        <g transform="matrix(32,0,0,32,94.52,0)">
            <path d="M0.415,-0.074C0.415,-0.045 0.393,-0.02 0.349,-0C0.312,0.016 0.277,0.024 0.243,0.024C0.22,0.024 0.194,0.018 0.165,0.008C0.149,0.001 0.124,-0.017 0.089,-0.045C0.05,-0.076 0.031,-0.097 0.031,-0.109C0.031,-0.135 0.047,-0.146 0.078,-0.144L0.085,-0.144C0.087,-0.119 0.113,-0.092 0.165,-0.063C0.212,-0.036 0.249,-0.023 0.278,-0.023C0.314,-0.023 0.333,-0.035 0.333,-0.06C0.333,-0.075 0.31,-0.096 0.265,-0.123C0.203,-0.158 0.161,-0.187 0.139,-0.209C0.093,-0.253 0.07,-0.304 0.07,-0.361C0.07,-0.405 0.081,-0.446 0.104,-0.485C0.13,-0.532 0.162,-0.555 0.201,-0.555C0.23,-0.555 0.264,-0.542 0.304,-0.516C0.344,-0.489 0.367,-0.463 0.374,-0.436C0.38,-0.414 0.384,-0.388 0.384,-0.358C0.384,-0.325 0.378,-0.29 0.366,-0.251C0.359,-0.245 0.35,-0.243 0.34,-0.243C0.334,-0.243 0.325,-0.245 0.313,-0.249C0.3,-0.254 0.294,-0.259 0.294,-0.264C0.294,-0.26 0.298,-0.27 0.308,-0.291C0.314,-0.305 0.318,-0.331 0.318,-0.369C0.318,-0.458 0.29,-0.503 0.234,-0.503C0.205,-0.503 0.181,-0.483 0.164,-0.444C0.149,-0.412 0.141,-0.38 0.141,-0.348C0.141,-0.307 0.165,-0.267 0.213,-0.229C0.228,-0.215 0.272,-0.187 0.344,-0.143C0.391,-0.113 0.415,-0.09 0.415,-0.074Z" style="fill:rgb(51,51,51);fill-rule:nonzero;"/>
        </g>
        <g transform="matrix(32,0,0,32,109.12,0)">
            <path d="M0.124,-0.013C0.124,0.009 0.112,0.02 0.089,0.02C0.052,0.02 0.034,-0.055 0.035,-0.206L0.039,-0.768C0.039,-0.777 0.038,-0.79 0.035,-0.807C0.033,-0.824 0.031,-0.837 0.031,-0.845C0.047,-0.857 0.06,-0.863 0.071,-0.863C0.083,-0.863 0.095,-0.858 0.106,-0.85C0.118,-0.842 0.124,-0.832 0.124,-0.82C0.124,-0.812 0.122,-0.801 0.118,-0.788C0.113,-0.771 0.11,-0.76 0.109,-0.756C0.099,-0.7 0.094,-0.62 0.094,-0.519C0.094,-0.355 0.093,-0.275 0.093,-0.281C0.095,-0.179 0.102,-0.102 0.113,-0.05C0.113,-0.048 0.114,-0.042 0.118,-0.033C0.122,-0.024 0.124,-0.018 0.124,-0.013Z" style="fill:rgb(51,51,51);fill-rule:nonzero;"/>
        </g>
        <g transform="matrix(32,0,0,32,114.4,0)">
            <path d="M0.344,-0.604C0.344,-0.594 0.34,-0.585 0.333,-0.577C0.325,-0.569 0.316,-0.565 0.305,-0.565C0.295,-0.565 0.286,-0.569 0.279,-0.577C0.271,-0.585 0.268,-0.594 0.268,-0.604C0.268,-0.615 0.271,-0.624 0.279,-0.632C0.286,-0.64 0.295,-0.644 0.305,-0.644C0.316,-0.644 0.325,-0.64 0.333,-0.632C0.34,-0.624 0.344,-0.615 0.344,-0.604ZM0.2,-0.604C0.2,-0.594 0.196,-0.585 0.189,-0.577C0.181,-0.569 0.172,-0.565 0.163,-0.565C0.152,-0.565 0.142,-0.569 0.135,-0.577C0.128,-0.585 0.124,-0.594 0.124,-0.604C0.124,-0.615 0.128,-0.624 0.135,-0.632C0.142,-0.64 0.152,-0.644 0.163,-0.644C0.172,-0.644 0.181,-0.64 0.189,-0.632C0.196,-0.624 0.2,-0.615 0.2,-0.604ZM0.414,0.036C0.414,0.048 0.405,0.054 0.386,0.054C0.366,0.054 0.354,0.045 0.35,0.029C0.349,0.026 0.349,0.01 0.349,-0.02C0.349,-0.028 0.347,-0.035 0.345,-0.04C0.298,-0.006 0.248,0.011 0.194,0.011C0.156,0.011 0.12,0.001 0.085,-0.02C0.045,-0.043 0.025,-0.073 0.025,-0.108C0.025,-0.142 0.049,-0.175 0.096,-0.208C0.14,-0.238 0.18,-0.253 0.216,-0.253L0.34,-0.253C0.345,-0.258 0.347,-0.266 0.348,-0.279C0.347,-0.335 0.343,-0.377 0.334,-0.405C0.319,-0.452 0.289,-0.476 0.245,-0.476C0.213,-0.476 0.184,-0.456 0.158,-0.416C0.133,-0.38 0.121,-0.345 0.121,-0.311L0.121,-0.298C0.121,-0.291 0.118,-0.288 0.111,-0.288C0.103,-0.288 0.094,-0.293 0.084,-0.303C0.074,-0.313 0.069,-0.321 0.069,-0.329C0.069,-0.352 0.076,-0.381 0.09,-0.417C0.104,-0.452 0.12,-0.479 0.136,-0.498C0.157,-0.52 0.183,-0.531 0.214,-0.531C0.261,-0.531 0.305,-0.516 0.345,-0.486C0.388,-0.454 0.409,-0.415 0.41,-0.369L0.414,0.036ZM0.348,-0.163C0.347,-0.196 0.322,-0.213 0.27,-0.213C0.229,-0.213 0.193,-0.205 0.163,-0.191C0.123,-0.173 0.104,-0.145 0.104,-0.109C0.104,-0.086 0.114,-0.069 0.135,-0.056C0.153,-0.045 0.173,-0.04 0.198,-0.04C0.233,-0.04 0.267,-0.052 0.299,-0.075C0.331,-0.098 0.347,-0.128 0.348,-0.163Z" style="fill:rgb(51,51,51);fill-rule:nonzero;"/>
        </g>
        <g transform="matrix(32,0,0,32,128.76,0)">
            <path d="M0.344,-0.604C0.344,-0.594 0.34,-0.585 0.333,-0.577C0.325,-0.569 0.316,-0.565 0.305,-0.565C0.295,-0.565 0.286,-0.569 0.279,-0.577C0.271,-0.585 0.268,-0.594 0.268,-0.604C0.268,-0.615 0.271,-0.624 0.279,-0.632C0.286,-0.64 0.295,-0.644 0.305,-0.644C0.316,-0.644 0.325,-0.64 0.333,-0.632C0.34,-0.624 0.344,-0.615 0.344,-0.604ZM0.2,-0.604C0.2,-0.594 0.196,-0.585 0.189,-0.577C0.181,-0.569 0.172,-0.565 0.163,-0.565C0.152,-0.565 0.142,-0.569 0.135,-0.577C0.128,-0.585 0.124,-0.594 0.124,-0.604C0.124,-0.615 0.128,-0.624 0.135,-0.632C0.142,-0.64 0.152,-0.644 0.163,-0.644C0.172,-0.644 0.181,-0.64 0.189,-0.632C0.196,-0.624 0.2,-0.615 0.2,-0.604ZM0.414,0.036C0.414,0.048 0.405,0.054 0.386,0.054C0.366,0.054 0.354,0.045 0.35,0.029C0.349,0.026 0.349,0.01 0.349,-0.02C0.349,-0.028 0.347,-0.035 0.345,-0.04C0.298,-0.006 0.248,0.011 0.194,0.011C0.156,0.011 0.12,0.001 0.085,-0.02C0.045,-0.043 0.025,-0.073 0.025,-0.108C0.025,-0.142 0.049,-0.175 0.096,-0.208C0.14,-0.238 0.18,-0.253 0.216,-0.253L0.34,-0.253C0.345,-0.258 0.347,-0.266 0.348,-0.279C0.347,-0.335 0.343,-0.377 0.334,-0.405C0.319,-0.452 0.289,-0.476 0.245,-0.476C0.213,-0.476 0.184,-0.456 0.158,-0.416C0.133,-0.38 0.121,-0.345 0.121,-0.311L0.121,-0.298C0.121,-0.291 0.118,-0.288 0.111,-0.288C0.103,-0.288 0.094,-0.293 0.084,-0.303C0.074,-0.313 0.069,-0.321 0.069,-0.329C0.069,-0.352 0.076,-0.381 0.09,-0.417C0.104,-0.452 0.12,-0.479 0.136,-0.498C0.157,-0.52 0.183,-0.531 0.214,-0.531C0.261,-0.531 0.305,-0.516 0.345,-0.486C0.388,-0.454 0.409,-0.415 0.41,-0.369L0.414,0.036ZM0.348,-0.163C0.347,-0.196 0.322,-0.213 0.27,-0.213C0.229,-0.213 0.193,-0.205 0.163,-0.191C0.123,-0.173 0.104,-0.145 0.104,-0.109C0.104,-0.086 0.114,-0.069 0.135,-0.056C0.153,-0.045 0.173,-0.04 0.198,-0.04C0.233,-0.04 0.267,-0.052 0.299,-0.075C0.331,-0.098 0.347,-0.128 0.348,-0.163Z" style="fill:rgb(51,51,51);fill-rule:nonzero;"/>
        </g>
        <g transform="matrix(32,0,0,32,143.12,0)">
            <path d="M0.47,0.049C0.449,0.065 0.433,0.074 0.42,0.074C0.402,0.074 0.37,0.047 0.325,-0.005C0.268,-0.073 0.238,-0.108 0.235,-0.111C0.225,-0.12 0.208,-0.139 0.183,-0.17C0.161,-0.196 0.142,-0.214 0.125,-0.224L0.103,-0.194L0.103,-0.07C0.102,-0.063 0.105,-0.052 0.111,-0.038C0.116,-0.024 0.119,-0.014 0.119,-0.006C0.119,-0.001 0.115,0.004 0.108,0.008C0.101,0.013 0.095,0.015 0.089,0.015C0.055,0.015 0.039,-0.003 0.039,-0.039L0.039,-0.214C0.039,-0.225 0.04,-0.241 0.043,-0.262C0.046,-0.283 0.048,-0.299 0.048,-0.31L0.048,-0.655C0.048,-0.704 0.045,-0.743 0.041,-0.771C0.041,-0.775 0.039,-0.785 0.035,-0.799C0.033,-0.81 0.031,-0.82 0.031,-0.828C0.031,-0.836 0.038,-0.844 0.051,-0.853C0.064,-0.861 0.075,-0.865 0.085,-0.865C0.093,-0.865 0.101,-0.863 0.109,-0.858C0.118,-0.854 0.123,-0.848 0.123,-0.841C0.123,-0.84 0.12,-0.83 0.116,-0.811C0.11,-0.789 0.108,-0.745 0.108,-0.68L0.103,-0.318L0.109,-0.311C0.135,-0.328 0.172,-0.359 0.219,-0.404C0.248,-0.434 0.277,-0.464 0.306,-0.494C0.354,-0.542 0.382,-0.566 0.39,-0.566C0.403,-0.566 0.413,-0.561 0.42,-0.549C0.428,-0.538 0.431,-0.526 0.43,-0.514L0.429,-0.508C0.397,-0.487 0.35,-0.449 0.289,-0.395C0.218,-0.333 0.183,-0.291 0.183,-0.271C0.183,-0.264 0.195,-0.245 0.22,-0.215C0.259,-0.169 0.298,-0.123 0.336,-0.078C0.389,-0.02 0.433,0.018 0.47,0.035L0.47,0.049Z" style="fill:rgb(51,51,51);fill-rule:nonzero;"/>
        </g>
        <g transform="matrix(32,0,0,32,158.68,0)">
            <path d="M0.344,-0.604C0.344,-0.594 0.34,-0.585 0.333,-0.577C0.325,-0.569 0.316,-0.565 0.305,-0.565C0.295,-0.565 0.286,-0.569 0.279,-0.577C0.271,-0.585 0.268,-0.594 0.268,-0.604C0.268,-0.615 0.271,-0.624 0.279,-0.632C0.286,-0.64 0.295,-0.644 0.305,-0.644C0.316,-0.644 0.325,-0.64 0.333,-0.632C0.34,-0.624 0.344,-0.615 0.344,-0.604ZM0.2,-0.604C0.2,-0.594 0.196,-0.585 0.189,-0.577C0.181,-0.569 0.172,-0.565 0.163,-0.565C0.152,-0.565 0.142,-0.569 0.135,-0.577C0.128,-0.585 0.124,-0.594 0.124,-0.604C0.124,-0.615 0.128,-0.624 0.135,-0.632C0.142,-0.64 0.152,-0.644 0.163,-0.644C0.172,-0.644 0.181,-0.64 0.189,-0.632C0.196,-0.624 0.2,-0.615 0.2,-0.604ZM0.414,0.036C0.414,0.048 0.405,0.054 0.386,0.054C0.366,0.054 0.354,0.045 0.35,0.029C0.349,0.026 0.349,0.01 0.349,-0.02C0.349,-0.028 0.347,-0.035 0.345,-0.04C0.298,-0.006 0.248,0.011 0.194,0.011C0.156,0.011 0.12,0.001 0.085,-0.02C0.045,-0.043 0.025,-0.073 0.025,-0.108C0.025,-0.142 0.049,-0.175 0.096,-0.208C0.14,-0.238 0.18,-0.253 0.216,-0.253L0.34,-0.253C0.345,-0.258 0.347,-0.266 0.348,-0.279C0.347,-0.335 0.343,-0.377 0.334,-0.405C0.319,-0.452 0.289,-0.476 0.245,-0.476C0.213,-0.476 0.184,-0.456 0.158,-0.416C0.133,-0.38 0.121,-0.345 0.121,-0.311L0.121,-0.298C0.121,-0.291 0.118,-0.288 0.111,-0.288C0.103,-0.288 0.094,-0.293 0.084,-0.303C0.074,-0.313 0.069,-0.321 0.069,-0.329C0.069,-0.352 0.076,-0.381 0.09,-0.417C0.104,-0.452 0.12,-0.479 0.136,-0.498C0.157,-0.52 0.183,-0.531 0.214,-0.531C0.261,-0.531 0.305,-0.516 0.345,-0.486C0.388,-0.454 0.409,-0.415 0.41,-0.369L0.414,0.036ZM0.348,-0.163C0.347,-0.196 0.322,-0.213 0.27,-0.213C0.229,-0.213 0.193,-0.205 0.163,-0.191C0.123,-0.173 0.104,-0.145 0.104,-0.109C0.104,-0.086 0.114,-0.069 0.135,-0.056C0.153,-0.045 0.173,-0.04 0.198,-0.04C0.233,-0.04 0.267,-0.052 0.299,-0.075C0.331,-0.098 0.347,-0.128 0.348,-0.163Z" style="fill:rgb(51,51,51);fill-rule:nonzero;"/>
        </g>
        <g transform="matrix(32,0,0,32,173.04,0)">
            <path d="M0.309,-0.445C0.309,-0.442 0.308,-0.435 0.308,-0.424C0.297,-0.407 0.286,-0.399 0.276,-0.399C0.27,-0.399 0.264,-0.403 0.259,-0.411C0.256,-0.464 0.235,-0.49 0.194,-0.49C0.167,-0.49 0.141,-0.441 0.115,-0.343C0.105,-0.307 0.1,-0.259 0.1,-0.199C0.1,-0.122 0.102,-0.075 0.106,-0.058C0.107,-0.055 0.109,-0.05 0.113,-0.042C0.116,-0.034 0.118,-0.028 0.118,-0.024C0.118,-0.005 0.105,0.004 0.08,0.004C0.052,0.004 0.038,-0.011 0.038,-0.04C0.038,-0.044 0.039,-0.05 0.041,-0.058C0.043,-0.066 0.044,-0.072 0.044,-0.076C0.044,-0.122 0.042,-0.191 0.038,-0.283C0.033,-0.374 0.031,-0.443 0.031,-0.489C0.031,-0.505 0.034,-0.516 0.04,-0.519C0.046,-0.523 0.057,-0.525 0.074,-0.525C0.095,-0.525 0.107,-0.518 0.11,-0.503C0.111,-0.486 0.112,-0.47 0.113,-0.454C0.134,-0.487 0.147,-0.506 0.15,-0.51C0.168,-0.531 0.188,-0.541 0.208,-0.541C0.223,-0.541 0.238,-0.537 0.253,-0.528C0.261,-0.523 0.272,-0.51 0.287,-0.489C0.301,-0.468 0.309,-0.453 0.309,-0.445Z" style="fill:rgb(51,51,51);fill-rule:nonzero;"/>
        </g>
        <g transform="matrix(32,0,0,32,184.24,0)">
            <path d="M0.145,-0.676C0.145,-0.648 0.132,-0.634 0.105,-0.634C0.089,-0.634 0.075,-0.64 0.061,-0.651C0.048,-0.663 0.041,-0.676 0.041,-0.691C0.041,-0.72 0.055,-0.734 0.084,-0.734C0.1,-0.734 0.115,-0.728 0.127,-0.718C0.139,-0.707 0.145,-0.693 0.145,-0.676ZM0.121,-0.489C0.121,-0.474 0.118,-0.451 0.111,-0.421C0.105,-0.391 0.101,-0.369 0.101,-0.354L0.101,-0.078C0.101,-0.059 0.105,-0.034 0.113,-0.003C0.109,0.004 0.105,0.008 0.099,0.008C0.058,0.008 0.038,-0.012 0.038,-0.051L0.038,-0.51C0.048,-0.516 0.059,-0.519 0.069,-0.519C0.079,-0.519 0.089,-0.516 0.1,-0.51C0.114,-0.504 0.121,-0.497 0.121,-0.489Z" style="fill:rgb(51,51,51);fill-rule:nonzero;"/>
        </g>
        <g transform="matrix(32,0,0,32,190.2,0)">
            <path d="M0.406,-0.306C0.406,-0.224 0.394,-0.155 0.37,-0.099C0.337,-0.021 0.286,0.018 0.216,0.018C0.17,0.018 0.13,-0.004 0.096,-0.046C0.09,-0.044 0.088,-0.018 0.088,0.031C0.088,0.14 0.093,0.216 0.104,0.261C0.105,0.265 0.109,0.275 0.116,0.291C0.123,0.307 0.126,0.317 0.126,0.32C0.126,0.333 0.118,0.34 0.101,0.34C0.081,0.34 0.067,0.337 0.059,0.331C0.051,0.325 0.045,0.306 0.039,0.274C0.034,0.246 0.031,0.225 0.031,0.209L0.031,-0.109C0.031,-0.138 0.033,-0.177 0.036,-0.226C0.04,-0.284 0.042,-0.323 0.043,-0.344C0.043,-0.366 0.043,-0.395 0.043,-0.431C0.042,-0.477 0.041,-0.507 0.041,-0.52C0.041,-0.578 0.056,-0.606 0.086,-0.606C0.101,-0.606 0.109,-0.601 0.109,-0.59C0.109,-0.569 0.107,-0.539 0.104,-0.499C0.1,-0.459 0.099,-0.429 0.099,-0.409L0.104,-0.409C0.123,-0.435 0.142,-0.461 0.161,-0.488C0.184,-0.517 0.212,-0.531 0.245,-0.531C0.301,-0.531 0.343,-0.506 0.371,-0.456C0.395,-0.416 0.406,-0.366 0.406,-0.306ZM0.345,-0.301C0.345,-0.345 0.34,-0.383 0.331,-0.415C0.317,-0.462 0.294,-0.485 0.263,-0.485C0.239,-0.485 0.211,-0.465 0.178,-0.424C0.148,-0.388 0.128,-0.351 0.116,-0.314C0.107,-0.285 0.1,-0.244 0.094,-0.189C0.09,-0.149 0.088,-0.13 0.088,-0.131C0.088,-0.129 0.091,-0.125 0.099,-0.119C0.104,-0.115 0.109,-0.112 0.114,-0.108C0.127,-0.088 0.141,-0.069 0.154,-0.049C0.168,-0.03 0.189,-0.02 0.216,-0.02C0.262,-0.02 0.297,-0.058 0.32,-0.133C0.337,-0.186 0.345,-0.242 0.345,-0.301Z" style="fill:rgb(51,51,51);fill-rule:nonzero;"/>
        </g>
        <g transform="matrix(32,0,0,32,203.6,0)">
            <path d="M0.42,0.036C0.42,0.048 0.411,0.054 0.393,0.054C0.373,0.054 0.36,0.045 0.356,0.029C0.355,0.026 0.355,0.01 0.355,-0.02C0.355,-0.028 0.354,-0.035 0.351,-0.04C0.305,-0.006 0.254,0.011 0.2,0.011C0.163,0.011 0.126,0.001 0.091,-0.02C0.051,-0.043 0.031,-0.073 0.031,-0.108C0.031,-0.142 0.055,-0.175 0.103,-0.208C0.146,-0.238 0.186,-0.253 0.223,-0.253L0.346,-0.253C0.351,-0.258 0.354,-0.266 0.354,-0.279C0.354,-0.335 0.349,-0.377 0.34,-0.405C0.325,-0.452 0.295,-0.476 0.251,-0.476C0.22,-0.476 0.19,-0.456 0.164,-0.416C0.14,-0.38 0.128,-0.345 0.128,-0.311L0.128,-0.298C0.128,-0.291 0.124,-0.288 0.118,-0.288C0.109,-0.288 0.1,-0.293 0.09,-0.303C0.08,-0.313 0.075,-0.321 0.075,-0.329C0.075,-0.352 0.082,-0.381 0.096,-0.417C0.11,-0.452 0.126,-0.479 0.143,-0.498C0.163,-0.52 0.189,-0.531 0.22,-0.531C0.268,-0.531 0.311,-0.516 0.351,-0.486C0.394,-0.454 0.415,-0.415 0.416,-0.369L0.42,0.036ZM0.354,-0.163C0.354,-0.196 0.328,-0.213 0.276,-0.213C0.235,-0.213 0.2,-0.205 0.169,-0.191C0.13,-0.173 0.11,-0.145 0.11,-0.109C0.11,-0.086 0.12,-0.069 0.141,-0.056C0.159,-0.045 0.18,-0.04 0.204,-0.04C0.24,-0.04 0.274,-0.052 0.306,-0.075C0.338,-0.098 0.354,-0.128 0.354,-0.163Z" style="fill:rgb(51,51,51);fill-rule:nonzero;"/>
        </g>
        <g transform="matrix(32,0,0,32,219.2,0)">
            <path d="M0.124,-0.013C0.124,0.009 0.112,0.02 0.089,0.02C0.052,0.02 0.034,-0.055 0.035,-0.206L0.039,-0.768C0.039,-0.777 0.038,-0.79 0.035,-0.807C0.033,-0.824 0.031,-0.837 0.031,-0.845C0.047,-0.857 0.06,-0.863 0.071,-0.863C0.083,-0.863 0.095,-0.858 0.106,-0.85C0.118,-0.842 0.124,-0.832 0.124,-0.82C0.124,-0.812 0.122,-0.801 0.118,-0.788C0.113,-0.771 0.11,-0.76 0.109,-0.756C0.099,-0.7 0.094,-0.62 0.094,-0.519C0.094,-0.355 0.093,-0.275 0.093,-0.281C0.095,-0.179 0.102,-0.102 0.113,-0.05C0.113,-0.048 0.114,-0.042 0.118,-0.033C0.122,-0.024 0.124,-0.018 0.124,-0.013Z" style="fill:rgb(51,51,51);fill-rule:nonzero;"/>
        </g>
        <g transform="matrix(32,0,0,32,224.16,0)">
            <path d="M0.41,-0.498C0.415,-0.426 0.4,-0.327 0.365,-0.201C0.328,-0.061 0.288,0.009 0.246,0.009C0.196,0.009 0.15,-0.044 0.109,-0.15C0.083,-0.214 0.061,-0.29 0.044,-0.378C0.035,-0.418 0.031,-0.461 0.031,-0.506C0.031,-0.513 0.035,-0.52 0.042,-0.527C0.049,-0.534 0.056,-0.538 0.063,-0.538C0.073,-0.538 0.088,-0.529 0.108,-0.513C0.104,-0.498 0.102,-0.484 0.103,-0.47C0.102,-0.419 0.113,-0.358 0.133,-0.286C0.151,-0.221 0.173,-0.163 0.198,-0.111C0.212,-0.083 0.223,-0.069 0.233,-0.069C0.265,-0.069 0.293,-0.134 0.318,-0.265C0.336,-0.367 0.345,-0.449 0.345,-0.513C0.345,-0.518 0.349,-0.523 0.357,-0.529C0.365,-0.535 0.372,-0.538 0.378,-0.538C0.398,-0.538 0.409,-0.524 0.41,-0.498Z" style="fill:rgb(51,51,51);fill-rule:nonzero;"/>
        </g>
        <g transform="matrix(32,0,0,32,237.64,0)">
            <path d="M0.398,-0.124C0.398,-0.087 0.373,-0.054 0.324,-0.025C0.28,0.002 0.238,0.015 0.199,0.015C0.087,0.015 0.031,-0.056 0.031,-0.198C0.031,-0.26 0.043,-0.327 0.065,-0.399C0.095,-0.492 0.133,-0.539 0.18,-0.539C0.22,-0.539 0.264,-0.519 0.311,-0.478C0.359,-0.438 0.383,-0.397 0.383,-0.358C0.383,-0.306 0.362,-0.261 0.32,-0.223C0.278,-0.184 0.231,-0.165 0.179,-0.165C0.174,-0.165 0.163,-0.169 0.147,-0.178C0.131,-0.186 0.12,-0.19 0.114,-0.19C0.103,-0.19 0.097,-0.187 0.098,-0.18C0.097,-0.084 0.129,-0.036 0.193,-0.036C0.225,-0.036 0.255,-0.047 0.283,-0.069C0.299,-0.081 0.318,-0.101 0.338,-0.128C0.353,-0.148 0.364,-0.159 0.369,-0.159C0.388,-0.159 0.398,-0.147 0.398,-0.124ZM0.311,-0.354C0.311,-0.383 0.303,-0.41 0.286,-0.436C0.27,-0.461 0.247,-0.474 0.22,-0.474C0.187,-0.474 0.16,-0.453 0.139,-0.411C0.121,-0.376 0.113,-0.34 0.113,-0.303C0.113,-0.278 0.12,-0.258 0.136,-0.242C0.151,-0.226 0.171,-0.218 0.195,-0.218C0.229,-0.218 0.258,-0.232 0.28,-0.261C0.301,-0.288 0.311,-0.319 0.311,-0.354Z" style="fill:rgb(51,51,51);fill-rule:nonzero;"/>
        </g>
        <g transform="matrix(32,0,0,32,251.48,0)">
            <path d="M0.124,-0.013C0.124,0.009 0.112,0.02 0.089,0.02C0.052,0.02 0.034,-0.055 0.035,-0.206L0.039,-0.768C0.039,-0.777 0.038,-0.79 0.035,-0.807C0.033,-0.824 0.031,-0.837 0.031,-0.845C0.047,-0.857 0.06,-0.863 0.071,-0.863C0.083,-0.863 0.095,-0.858 0.106,-0.85C0.118,-0.842 0.124,-0.832 0.124,-0.82C0.124,-0.812 0.122,-0.801 0.118,-0.788C0.113,-0.771 0.11,-0.76 0.109,-0.756C0.099,-0.7 0.094,-0.62 0.094,-0.519C0.094,-0.355 0.093,-0.275 0.093,-0.281C0.095,-0.179 0.102,-0.102 0.113,-0.05C0.113,-0.048 0.114,-0.042 0.118,-0.033C0.122,-0.024 0.124,-0.018 0.124,-0.013Z" style="fill:rgb(51,51,51);fill-rule:nonzero;"/>
        </g>
        <g transform="matrix(32,0,0,32,256.76,0)">
            <path d="M0.389,-0.468C0.389,-0.442 0.386,-0.403 0.381,-0.352C0.375,-0.301 0.373,-0.256 0.373,-0.219C0.373,-0.204 0.374,-0.175 0.377,-0.133C0.38,-0.091 0.381,-0.061 0.381,-0.043C0.381,-0.006 0.377,0.016 0.369,0.024C0.364,0.027 0.357,0.029 0.348,0.029C0.329,0.029 0.317,0.021 0.31,0.005C0.307,-0.011 0.303,-0.026 0.3,-0.041C0.276,-0.005 0.235,0.017 0.176,0.026C0.155,0.03 0.13,0.02 0.101,-0.003C0.075,-0.023 0.058,-0.043 0.05,-0.063C0.038,-0.09 0.033,-0.143 0.033,-0.221L0.033,-0.493C0.028,-0.518 0.042,-0.53 0.075,-0.53C0.098,-0.53 0.11,-0.517 0.11,-0.49C0.11,-0.45 0.109,-0.398 0.106,-0.334C0.104,-0.252 0.102,-0.2 0.103,-0.178C0.102,-0.148 0.108,-0.118 0.123,-0.088C0.139,-0.052 0.16,-0.034 0.186,-0.034C0.229,-0.034 0.262,-0.062 0.285,-0.119C0.302,-0.161 0.31,-0.208 0.31,-0.259L0.31,-0.423C0.31,-0.429 0.308,-0.439 0.303,-0.451C0.299,-0.463 0.296,-0.472 0.296,-0.48C0.296,-0.484 0.297,-0.489 0.298,-0.494C0.309,-0.505 0.321,-0.51 0.333,-0.511C0.37,-0.515 0.389,-0.5 0.389,-0.468Z" style="fill:rgb(51,51,51);fill-rule:nonzero;"/>
        </g>
    </g>
    <g transform="matrix(1,0,0,1,76.0884,78.3831)">
        <g transform="matrix(36,0,0,36,0,0)">
            <path d="M0.586,-0.795C0.586,-0.781 0.578,-0.774 0.561,-0.774C0.556,-0.774 0.549,-0.774 0.539,-0.776C0.529,-0.777 0.521,-0.778 0.516,-0.778C0.476,-0.778 0.456,-0.765 0.456,-0.74C0.456,-0.733 0.457,-0.724 0.458,-0.711C0.459,-0.699 0.46,-0.689 0.46,-0.683C0.46,-0.54 0.454,-0.418 0.443,-0.315C0.432,-0.223 0.417,-0.153 0.399,-0.106C0.365,-0.025 0.315,0.015 0.248,0.015C0.19,0.015 0.137,-0.019 0.09,-0.086C0.047,-0.148 0.025,-0.209 0.025,-0.269C0.025,-0.337 0.037,-0.371 0.06,-0.371C0.097,-0.371 0.116,-0.34 0.116,-0.276C0.116,-0.266 0.116,-0.252 0.115,-0.233C0.114,-0.214 0.114,-0.2 0.114,-0.191C0.114,-0.16 0.127,-0.129 0.154,-0.098C0.18,-0.066 0.209,-0.05 0.24,-0.05C0.333,-0.05 0.38,-0.188 0.38,-0.465C0.38,-0.658 0.38,-0.747 0.381,-0.733L0.379,-0.735C0.355,-0.734 0.322,-0.722 0.279,-0.698C0.235,-0.673 0.212,-0.661 0.209,-0.661C0.199,-0.661 0.191,-0.666 0.185,-0.677C0.179,-0.687 0.176,-0.698 0.176,-0.708C0.176,-0.722 0.185,-0.733 0.204,-0.741C0.219,-0.747 0.249,-0.756 0.294,-0.769C0.331,-0.78 0.36,-0.791 0.381,-0.804L0.384,-0.808C0.387,-0.833 0.398,-0.846 0.418,-0.846C0.423,-0.846 0.43,-0.842 0.441,-0.835C0.451,-0.828 0.459,-0.824 0.464,-0.824C0.471,-0.824 0.482,-0.826 0.496,-0.829C0.509,-0.833 0.52,-0.835 0.528,-0.835C0.54,-0.835 0.553,-0.831 0.566,-0.823C0.58,-0.815 0.586,-0.806 0.586,-0.795Z" style="fill:rgb(51,51,51);fill-rule:nonzero;"/>
        </g>
        <g transform="matrix(36,0,0,36,19.215,0)">
            <path d="M0.389,-0.468C0.389,-0.442 0.386,-0.403 0.381,-0.352C0.375,-0.301 0.373,-0.256 0.373,-0.219C0.373,-0.204 0.374,-0.175 0.377,-0.133C0.38,-0.091 0.381,-0.061 0.381,-0.043C0.381,-0.006 0.377,0.016 0.369,0.024C0.364,0.027 0.357,0.029 0.348,0.029C0.329,0.029 0.317,0.021 0.31,0.005C0.307,-0.011 0.303,-0.026 0.3,-0.041C0.276,-0.005 0.235,0.017 0.176,0.026C0.155,0.03 0.13,0.02 0.101,-0.003C0.075,-0.023 0.058,-0.043 0.05,-0.063C0.038,-0.09 0.033,-0.143 0.033,-0.221L0.033,-0.493C0.028,-0.518 0.042,-0.53 0.075,-0.53C0.098,-0.53 0.11,-0.517 0.11,-0.49C0.11,-0.45 0.109,-0.398 0.106,-0.334C0.104,-0.252 0.102,-0.2 0.103,-0.178C0.102,-0.148 0.108,-0.118 0.123,-0.088C0.139,-0.052 0.16,-0.034 0.186,-0.034C0.229,-0.034 0.262,-0.062 0.285,-0.119C0.302,-0.161 0.31,-0.208 0.31,-0.259L0.31,-0.423C0.31,-0.429 0.308,-0.439 0.303,-0.451C0.299,-0.463 0.296,-0.472 0.296,-0.48C0.296,-0.484 0.297,-0.489 0.298,-0.494C0.309,-0.505 0.321,-0.51 0.333,-0.511C0.37,-0.515 0.389,-0.5 0.389,-0.468Z" style="fill:rgb(51,51,51);fill-rule:nonzero;"/>
        </g>
        <g transform="matrix(36,0,0,36,35.19,0)">
            <path d="M0.368,0.034C0.361,0.04 0.348,0.044 0.33,0.044C0.321,0.044 0.311,0.038 0.301,0.026C0.302,-0.045 0.303,-0.102 0.303,-0.145C0.303,-0.357 0.267,-0.463 0.196,-0.463C0.166,-0.463 0.141,-0.445 0.121,-0.41C0.104,-0.38 0.095,-0.349 0.095,-0.318C0.095,-0.314 0.094,-0.309 0.092,-0.302C0.09,-0.295 0.089,-0.29 0.089,-0.286L0.089,-0.126C0.089,-0.112 0.091,-0.092 0.095,-0.065C0.099,-0.038 0.101,-0.018 0.101,-0.005C0.101,0.008 0.091,0.015 0.071,0.015C0.057,0.015 0.045,0.008 0.036,-0.005C0.026,-0.018 0.021,-0.032 0.021,-0.046L0.029,-0.815C0.027,-0.82 0.026,-0.825 0.026,-0.83C0.026,-0.845 0.035,-0.853 0.051,-0.853C0.06,-0.853 0.072,-0.847 0.088,-0.836C0.104,-0.824 0.113,-0.815 0.113,-0.808C0.113,-0.788 0.109,-0.759 0.101,-0.721C0.093,-0.684 0.089,-0.655 0.089,-0.636C0.089,-0.635 0.09,-0.579 0.091,-0.47C0.122,-0.498 0.146,-0.511 0.163,-0.511C0.189,-0.511 0.221,-0.503 0.259,-0.488C0.331,-0.458 0.368,-0.378 0.368,-0.25L0.368,0.034Z" style="fill:rgb(51,51,51);fill-rule:nonzero;"/>
        </g>
        <g transform="matrix(36,0,0,36,50.265,0)">
            <path d="M0.428,-0.246C0.428,-0.175 0.412,-0.112 0.38,-0.059C0.342,0.005 0.29,0.038 0.224,0.038C0.156,0.038 0.106,0.011 0.073,-0.041C0.045,-0.085 0.031,-0.142 0.031,-0.214C0.031,-0.285 0.047,-0.354 0.079,-0.423C0.119,-0.507 0.17,-0.549 0.231,-0.549C0.247,-0.549 0.27,-0.54 0.299,-0.521C0.385,-0.468 0.428,-0.376 0.428,-0.246ZM0.368,-0.248C0.368,-0.301 0.36,-0.349 0.346,-0.391C0.325,-0.45 0.293,-0.48 0.25,-0.48C0.2,-0.48 0.161,-0.447 0.133,-0.381C0.111,-0.33 0.1,-0.276 0.1,-0.218C0.1,-0.165 0.108,-0.121 0.123,-0.085C0.144,-0.036 0.178,-0.011 0.224,-0.011C0.274,-0.011 0.312,-0.04 0.338,-0.096C0.358,-0.14 0.368,-0.191 0.368,-0.248Z" style="fill:rgb(51,51,51);fill-rule:nonzero;"/>
        </g>
        <g transform="matrix(36,0,0,36,76.995,0)">
            <path d="M0.461,-0.028C0.385,0.002 0.298,0.016 0.201,0.016C0.13,0.016 0.08,-0.012 0.054,-0.068C0.035,-0.107 0.025,-0.167 0.025,-0.248C0.025,-0.299 0.029,-0.376 0.037,-0.479C0.045,-0.581 0.049,-0.658 0.049,-0.709C0.049,-0.72 0.048,-0.735 0.046,-0.756C0.045,-0.777 0.044,-0.793 0.044,-0.804C0.044,-0.812 0.044,-0.821 0.045,-0.83C0.054,-0.841 0.067,-0.846 0.083,-0.846C0.112,-0.846 0.126,-0.812 0.126,-0.744C0.126,-0.685 0.121,-0.596 0.11,-0.478C0.099,-0.359 0.094,-0.27 0.094,-0.211C0.094,-0.099 0.131,-0.043 0.206,-0.043C0.231,-0.043 0.266,-0.05 0.312,-0.064C0.357,-0.078 0.393,-0.085 0.418,-0.085C0.431,-0.085 0.441,-0.079 0.449,-0.067C0.457,-0.055 0.461,-0.042 0.461,-0.028Z" style="fill:rgb(51,51,51);fill-rule:nonzero;"/>
        </g>
        <g transform="matrix(36,0,0,36,94.41,0)">
            <path d="M0.344,-0.604C0.344,-0.594 0.34,-0.585 0.333,-0.577C0.325,-0.569 0.316,-0.565 0.305,-0.565C0.295,-0.565 0.286,-0.569 0.279,-0.577C0.271,-0.585 0.268,-0.594 0.268,-0.604C0.268,-0.615 0.271,-0.624 0.279,-0.632C0.286,-0.64 0.295,-0.644 0.305,-0.644C0.316,-0.644 0.325,-0.64 0.333,-0.632C0.34,-0.624 0.344,-0.615 0.344,-0.604ZM0.2,-0.604C0.2,-0.594 0.196,-0.585 0.189,-0.577C0.181,-0.569 0.172,-0.565 0.163,-0.565C0.152,-0.565 0.142,-0.569 0.135,-0.577C0.128,-0.585 0.124,-0.594 0.124,-0.604C0.124,-0.615 0.128,-0.624 0.135,-0.632C0.142,-0.64 0.152,-0.644 0.163,-0.644C0.172,-0.644 0.181,-0.64 0.189,-0.632C0.196,-0.624 0.2,-0.615 0.2,-0.604ZM0.414,0.036C0.414,0.048 0.405,0.054 0.386,0.054C0.366,0.054 0.354,0.045 0.35,0.029C0.349,0.026 0.349,0.01 0.349,-0.02C0.349,-0.028 0.347,-0.035 0.345,-0.04C0.298,-0.006 0.248,0.011 0.194,0.011C0.156,0.011 0.12,0.001 0.085,-0.02C0.045,-0.043 0.025,-0.073 0.025,-0.108C0.025,-0.142 0.049,-0.175 0.096,-0.208C0.14,-0.238 0.18,-0.253 0.216,-0.253L0.34,-0.253C0.345,-0.258 0.347,-0.266 0.348,-0.279C0.347,-0.335 0.343,-0.377 0.334,-0.405C0.319,-0.452 0.289,-0.476 0.245,-0.476C0.213,-0.476 0.184,-0.456 0.158,-0.416C0.133,-0.38 0.121,-0.345 0.121,-0.311L0.121,-0.298C0.121,-0.291 0.118,-0.288 0.111,-0.288C0.103,-0.288 0.094,-0.293 0.084,-0.303C0.074,-0.313 0.069,-0.321 0.069,-0.329C0.069,-0.352 0.076,-0.381 0.09,-0.417C0.104,-0.452 0.12,-0.479 0.136,-0.498C0.157,-0.52 0.183,-0.531 0.214,-0.531C0.261,-0.531 0.305,-0.516 0.345,-0.486C0.388,-0.454 0.409,-0.415 0.41,-0.369L0.414,0.036ZM0.348,-0.163C0.347,-0.196 0.322,-0.213 0.27,-0.213C0.229,-0.213 0.193,-0.205 0.163,-0.191C0.123,-0.173 0.104,-0.145 0.104,-0.109C0.104,-0.086 0.114,-0.069 0.135,-0.056C0.153,-0.045 0.173,-0.04 0.198,-0.04C0.233,-0.04 0.267,-0.052 0.299,-0.075C0.331,-0.098 0.347,-0.128 0.348,-0.163Z" style="fill:rgb(51,51,51);fill-rule:nonzero;"/>
        </g>
        <g transform="matrix(36,0,0,36,110.565,0)">
            <path d="M0.368,0.034C0.361,0.04 0.348,0.044 0.33,0.044C0.321,0.044 0.311,0.038 0.301,0.026C0.302,-0.045 0.303,-0.102 0.303,-0.145C0.303,-0.357 0.267,-0.463 0.196,-0.463C0.166,-0.463 0.141,-0.445 0.121,-0.41C0.104,-0.38 0.095,-0.349 0.095,-0.318C0.095,-0.314 0.094,-0.309 0.092,-0.302C0.09,-0.295 0.089,-0.29 0.089,-0.286L0.089,-0.126C0.089,-0.112 0.091,-0.092 0.095,-0.065C0.099,-0.038 0.101,-0.018 0.101,-0.005C0.101,0.008 0.091,0.015 0.071,0.015C0.057,0.015 0.045,0.008 0.036,-0.005C0.026,-0.018 0.021,-0.032 0.021,-0.046L0.029,-0.815C0.027,-0.82 0.026,-0.825 0.026,-0.83C0.026,-0.845 0.035,-0.853 0.051,-0.853C0.06,-0.853 0.072,-0.847 0.088,-0.836C0.104,-0.824 0.113,-0.815 0.113,-0.808C0.113,-0.788 0.109,-0.759 0.101,-0.721C0.093,-0.684 0.089,-0.655 0.089,-0.636C0.089,-0.635 0.09,-0.579 0.091,-0.47C0.122,-0.498 0.146,-0.511 0.163,-0.511C0.189,-0.511 0.221,-0.503 0.259,-0.488C0.331,-0.458 0.368,-0.378 0.368,-0.25L0.368,0.034Z" style="fill:rgb(51,51,51);fill-rule:nonzero;"/>
        </g>
        <g transform="matrix(36,0,0,36,123.435,0)">
            <path d="M0.293,-0.394C0.286,-0.389 0.27,-0.385 0.245,-0.381C0.218,-0.378 0.202,-0.375 0.198,-0.373C0.197,-0.363 0.196,-0.317 0.196,-0.234C0.196,-0.169 0.197,-0.125 0.199,-0.103C0.199,-0.093 0.201,-0.079 0.205,-0.059C0.209,-0.039 0.211,-0.023 0.211,-0.013C0.211,-0.006 0.207,0.001 0.199,0.008C0.19,0.014 0.183,0.018 0.176,0.018C0.16,0.018 0.146,0 0.136,-0.034C0.13,-0.059 0.126,-0.083 0.126,-0.105C0.126,-0.223 0.127,-0.309 0.129,-0.365C0.124,-0.369 0.105,-0.369 0.071,-0.365C0.045,-0.362 0.031,-0.371 0.031,-0.394C0.031,-0.425 0.065,-0.44 0.133,-0.438L0.149,-0.664C0.149,-0.666 0.148,-0.67 0.146,-0.676C0.144,-0.681 0.143,-0.685 0.143,-0.688C0.143,-0.693 0.146,-0.697 0.153,-0.702C0.159,-0.706 0.167,-0.708 0.176,-0.708C0.205,-0.705 0.22,-0.69 0.22,-0.664C0.22,-0.643 0.217,-0.612 0.211,-0.57C0.205,-0.528 0.203,-0.498 0.203,-0.478C0.203,-0.468 0.203,-0.458 0.205,-0.449L0.274,-0.453C0.297,-0.452 0.309,-0.443 0.309,-0.425C0.309,-0.412 0.303,-0.401 0.293,-0.394Z" style="fill:rgb(51,51,51);fill-rule:nonzero;"/>
        </g>
        <g transform="matrix(36,0,0,36,134.37,0)">
            <path d="M0.398,-0.124C0.398,-0.087 0.373,-0.054 0.324,-0.025C0.28,0.002 0.238,0.015 0.199,0.015C0.087,0.015 0.031,-0.056 0.031,-0.198C0.031,-0.26 0.043,-0.327 0.065,-0.399C0.095,-0.492 0.133,-0.539 0.18,-0.539C0.22,-0.539 0.264,-0.519 0.311,-0.478C0.359,-0.438 0.383,-0.397 0.383,-0.358C0.383,-0.306 0.362,-0.261 0.32,-0.223C0.278,-0.184 0.231,-0.165 0.179,-0.165C0.174,-0.165 0.163,-0.169 0.147,-0.178C0.131,-0.186 0.12,-0.19 0.114,-0.19C0.103,-0.19 0.097,-0.187 0.098,-0.18C0.097,-0.084 0.129,-0.036 0.193,-0.036C0.225,-0.036 0.255,-0.047 0.283,-0.069C0.299,-0.081 0.318,-0.101 0.338,-0.128C0.353,-0.148 0.364,-0.159 0.369,-0.159C0.388,-0.159 0.398,-0.147 0.398,-0.124ZM0.311,-0.354C0.311,-0.383 0.303,-0.41 0.286,-0.436C0.27,-0.461 0.247,-0.474 0.22,-0.474C0.187,-0.474 0.16,-0.453 0.139,-0.411C0.121,-0.376 0.113,-0.34 0.113,-0.303C0.113,-0.278 0.12,-0.258 0.136,-0.242C0.151,-0.226 0.171,-0.218 0.195,-0.218C0.229,-0.218 0.258,-0.232 0.28,-0.261C0.301,-0.288 0.311,-0.319 0.311,-0.354Z" style="fill:rgb(51,51,51);fill-rule:nonzero;"/>
        </g>
        <g transform="matrix(36,0,0,36,149.94,0)">
            <path d="M0.398,-0.124C0.398,-0.087 0.373,-0.054 0.324,-0.025C0.28,0.002 0.238,0.015 0.199,0.015C0.087,0.015 0.031,-0.056 0.031,-0.198C0.031,-0.26 0.043,-0.327 0.065,-0.399C0.095,-0.492 0.133,-0.539 0.18,-0.539C0.22,-0.539 0.264,-0.519 0.311,-0.478C0.359,-0.438 0.383,-0.397 0.383,-0.358C0.383,-0.306 0.362,-0.261 0.32,-0.223C0.278,-0.184 0.231,-0.165 0.179,-0.165C0.174,-0.165 0.163,-0.169 0.147,-0.178C0.131,-0.186 0.12,-0.19 0.114,-0.19C0.103,-0.19 0.097,-0.187 0.098,-0.18C0.097,-0.084 0.129,-0.036 0.193,-0.036C0.225,-0.036 0.255,-0.047 0.283,-0.069C0.299,-0.081 0.318,-0.101 0.338,-0.128C0.353,-0.148 0.364,-0.159 0.369,-0.159C0.388,-0.159 0.398,-0.147 0.398,-0.124ZM0.311,-0.354C0.311,-0.383 0.303,-0.41 0.286,-0.436C0.27,-0.461 0.247,-0.474 0.22,-0.474C0.187,-0.474 0.16,-0.453 0.139,-0.411C0.121,-0.376 0.113,-0.34 0.113,-0.303C0.113,-0.278 0.12,-0.258 0.136,-0.242C0.151,-0.226 0.171,-0.218 0.195,-0.218C0.229,-0.218 0.258,-0.232 0.28,-0.261C0.301,-0.288 0.311,-0.319 0.311,-0.354Z" style="fill:rgb(51,51,51);fill-rule:nonzero;"/>
        </g>
        <g transform="matrix(36,0,0,36,165.51,0)">
            <path d="M0.428,0.006C0.423,0.015 0.415,0.02 0.406,0.02C0.397,0.02 0.382,0.014 0.361,0.003L0.361,-0.008C0.361,-0.015 0.362,-0.026 0.363,-0.041C0.363,-0.056 0.364,-0.067 0.364,-0.074C0.364,-0.35 0.329,-0.489 0.26,-0.489C0.238,-0.489 0.215,-0.473 0.19,-0.441C0.127,-0.363 0.095,-0.264 0.095,-0.145C0.095,-0.129 0.098,-0.106 0.103,-0.076C0.109,-0.045 0.111,-0.022 0.111,-0.006C0.111,0.006 0.102,0.013 0.085,0.013C0.052,0.013 0.035,-0.014 0.035,-0.066L0.035,-0.35C0.035,-0.358 0.036,-0.368 0.038,-0.383C0.039,-0.397 0.04,-0.408 0.04,-0.415C0.04,-0.426 0.039,-0.442 0.036,-0.463C0.033,-0.483 0.031,-0.499 0.031,-0.509C0.031,-0.515 0.036,-0.523 0.047,-0.532C0.057,-0.541 0.065,-0.545 0.071,-0.545C0.082,-0.545 0.092,-0.539 0.101,-0.528C0.099,-0.473 0.097,-0.442 0.098,-0.433C0.097,-0.42 0.098,-0.408 0.099,-0.396C0.106,-0.399 0.116,-0.413 0.129,-0.438C0.145,-0.469 0.158,-0.491 0.169,-0.503C0.189,-0.526 0.212,-0.538 0.238,-0.538C0.248,-0.538 0.263,-0.534 0.283,-0.526C0.328,-0.51 0.36,-0.482 0.379,-0.444C0.411,-0.378 0.428,-0.291 0.428,-0.183L0.428,0.006Z" style="fill:rgb(51,51,51);fill-rule:nonzero;"/>
        </g>
        <g transform="matrix(36,0,0,36,182.385,0)">
            <path d="M0.428,-0.246C0.428,-0.175 0.412,-0.112 0.38,-0.059C0.342,0.005 0.29,0.038 0.224,0.038C0.156,0.038 0.106,0.011 0.073,-0.041C0.045,-0.085 0.031,-0.142 0.031,-0.214C0.031,-0.285 0.047,-0.354 0.079,-0.423C0.119,-0.507 0.17,-0.549 0.231,-0.549C0.247,-0.549 0.27,-0.54 0.299,-0.521C0.385,-0.468 0.428,-0.376 0.428,-0.246ZM0.368,-0.248C0.368,-0.301 0.36,-0.349 0.346,-0.391C0.325,-0.45 0.293,-0.48 0.25,-0.48C0.2,-0.48 0.161,-0.447 0.133,-0.381C0.111,-0.33 0.1,-0.276 0.1,-0.218C0.1,-0.165 0.108,-0.121 0.123,-0.085C0.144,-0.036 0.178,-0.011 0.224,-0.011C0.274,-0.011 0.312,-0.04 0.338,-0.096C0.358,-0.14 0.368,-0.191 0.368,-0.248Z" style="fill:rgb(51,51,51);fill-rule:nonzero;"/>
        </g>
        <g transform="matrix(36,0,0,36,199.26,0)">
            <path d="M0.191,-0.616C0.191,-0.605 0.186,-0.595 0.176,-0.586C0.165,-0.578 0.154,-0.574 0.143,-0.574C0.13,-0.574 0.112,-0.589 0.089,-0.619L0.089,-0.636C0.089,-0.661 0.101,-0.674 0.126,-0.674C0.143,-0.674 0.158,-0.668 0.171,-0.658C0.185,-0.647 0.191,-0.633 0.191,-0.616ZM0.184,-0.489C0.17,-0.447 0.163,-0.408 0.163,-0.373C0.163,-0.316 0.164,-0.231 0.166,-0.118C0.169,-0.005 0.17,0.08 0.17,0.136C0.17,0.191 0.157,0.24 0.13,0.281C0.098,0.33 0.057,0.354 0.005,0.354C-0.022,0.354 -0.063,0.342 -0.115,0.318C-0.173,0.292 -0.203,0.267 -0.203,0.244C-0.203,0.23 -0.194,0.223 -0.176,0.223C-0.17,0.223 -0.166,0.223 -0.164,0.224C-0.125,0.27 -0.078,0.294 -0.021,0.294C0.065,0.294 0.109,0.218 0.109,0.068C0.109,0.063 0.106,-0.12 0.1,-0.481L0.11,-0.493C0.136,-0.499 0.15,-0.503 0.154,-0.503C0.165,-0.503 0.175,-0.498 0.184,-0.489Z" style="fill:rgb(51,51,51);fill-rule:nonzero;"/>
        </g>
        <g transform="matrix(36,0,0,36,206.955,0)">
            <path d="M0.42,0.036C0.42,0.048 0.411,0.054 0.393,0.054C0.373,0.054 0.36,0.045 0.356,0.029C0.355,0.026 0.355,0.01 0.355,-0.02C0.355,-0.028 0.354,-0.035 0.351,-0.04C0.305,-0.006 0.254,0.011 0.2,0.011C0.163,0.011 0.126,0.001 0.091,-0.02C0.051,-0.043 0.031,-0.073 0.031,-0.108C0.031,-0.142 0.055,-0.175 0.103,-0.208C0.146,-0.238 0.186,-0.253 0.223,-0.253L0.346,-0.253C0.351,-0.258 0.354,-0.266 0.354,-0.279C0.354,-0.335 0.349,-0.377 0.34,-0.405C0.325,-0.452 0.295,-0.476 0.251,-0.476C0.22,-0.476 0.19,-0.456 0.164,-0.416C0.14,-0.38 0.128,-0.345 0.128,-0.311L0.128,-0.298C0.128,-0.291 0.124,-0.288 0.118,-0.288C0.109,-0.288 0.1,-0.293 0.09,-0.303C0.08,-0.313 0.075,-0.321 0.075,-0.329C0.075,-0.352 0.082,-0.381 0.096,-0.417C0.11,-0.452 0.126,-0.479 0.143,-0.498C0.163,-0.52 0.189,-0.531 0.22,-0.531C0.268,-0.531 0.311,-0.516 0.351,-0.486C0.394,-0.454 0.415,-0.415 0.416,-0.369L0.42,0.036ZM0.354,-0.163C0.354,-0.196 0.328,-0.213 0.276,-0.213C0.235,-0.213 0.2,-0.205 0.169,-0.191C0.13,-0.173 0.11,-0.145 0.11,-0.109C0.11,-0.086 0.12,-0.069 0.141,-0.056C0.159,-0.045 0.18,-0.04 0.204,-0.04C0.24,-0.04 0.274,-0.052 0.306,-0.075C0.338,-0.098 0.354,-0.128 0.354,-0.163Z" style="fill:rgb(51,51,51);fill-rule:nonzero;"/>
        </g>
    </g>
    <g id="Group" transform="matrix(1,0,0,1,6.5884,4.38307)">
        <path id="Path" d="M41,1.499C43.979,1.499 46.864,2.985 48.997,5.282C51.112,7.56 52.5,10.653 52.5,13.999C52.5,15.021 52.416,16.461 52.258,18.161L51.918,21.282C51.28,25.79 50.031,31.194 47.688,35.429C47.987,43.297 47.745,54.279 46.635,63.667C46.082,68.341 45.318,72.593 44.294,75.749C43.911,76.912 43.456,78.314 42.604,79.358C42.272,79.765 41.87,80.112 41.367,80.331C40.954,78.515 40.539,76.562 40.111,74.545C39.007,69.348 37.813,63.737 36.339,58.964C35.242,55.411 33.983,52.325 32.558,50.196C30.806,47.583 28.958,46.5 27,46.5C24.992,46.5 23.23,47.529 21.586,50.058C20.259,52.1 19.123,55.1 18.148,58.599C16.951,62.91 15.994,67.983 15.06,72.946C14.577,75.511 14.1,78.045 13.597,80.425C13.177,80.287 12.826,79.977 12.511,79.625C11.612,78.622 10.989,77.173 10.52,76.011C9.402,73.006 8.534,68.935 7.859,64.405C6.499,55.259 6.018,44.271 6.497,36.277C3.396,30.2 2.167,23.135 1.716,18.21C1.555,14.451 1.597,11.93 1.897,10.657C2.331,8.822 3.106,7.035 4.166,5.517C5.762,3.239 8.103,1.5 11,1.499C14.41,1.499 17.473,2.127 20.135,2.665C22.357,3.115 24.323,3.499 26,3.499C27.677,3.499 29.643,3.115 31.865,2.665C34.527,2.127 37.59,1.499 41,1.499Z" style="fill:white;fill-rule:nonzero;stroke:rgb(24,176,216);stroke-width:3px;"/>
        <path id="Shape" d="M12,15.834C12,16.484 12.453,16.976 13.047,16.992L13.157,16.992C13.426,17 13.433,17 13.186,17C13.795,17 14.26,16.494 14.26,15.834C14.26,14.51 15.247,13.417 16.44,13.349L16.5,13.344L16.56,13.349C17.756,13.417 18.74,14.507 18.74,15.834C18.74,16.497 19.203,17 19.812,17C19.565,17 19.572,17 19.84,16.992L19.898,16.992C20.166,17 20.173,17 19.927,17C20.535,17 21,16.494 21,15.834C21,13.159 19.018,11 16.558,11C16.816,11 16.802,11.005 16.512,11.008L16.49,11.008C16.2,11.005 16.188,11 16.445,11C13.982,11 12,13.159 12,15.834ZM33,15.834C33,16.494 33.465,17 34.073,17C33.827,17 33.834,17 34.102,16.992L34.16,16.992C34.428,17 34.435,17 34.188,17C34.797,17 35.26,16.497 35.26,15.834C35.26,14.51 36.247,13.417 37.44,13.349L37.5,13.344L37.56,13.349C38.756,13.417 39.74,14.507 39.74,15.834C39.74,16.494 40.205,17 40.814,17C40.567,17 40.574,17 40.843,16.992L40.953,16.992C41.547,16.977 42,16.484 42,15.834C42,13.159 40.018,11 37.558,11C37.816,11 37.802,11.005 37.512,11.008L37.49,11.008C37.2,11.005 37.188,11 37.445,11C34.982,11 33,13.159 33,15.834ZM17,28.117C17,33.579 21.25,38 26.5,38C31.75,38 36,33.578 36,28.117C36,27.484 35.537,27.003 34.928,27.003C34.854,27.003 34.78,27.01 34.71,27.025C34.221,27.13 33.854,27.564 33.854,28.117C33.854,31.798 31.333,34.895 27.981,35.608C27.504,35.711 27.008,35.766 26.5,35.766C22.456,35.766 19.145,32.322 19.145,28.115C19.145,27.484 18.68,27 18.071,27C17.463,27.003 17,27.484 17,28.117Z" style="fill:rgb(24,176,216);fill-rule:nonzero;"/>
        <circle id="Oval" cx="42" cy="24" r="4" style="fill:url(#_Radial1);"/>
        <circle id="Oval1" serif:id="Oval" cx="11" cy="24" r="4" style="fill:url(#_Radial2);"/>
    </g>
    <defs>
        <radialGradient id="_Radial1" cx="0" cy="0" r="1" gradientUnits="userSpaceOnUse" gradientTransform="matrix(3.96699,0,0,3.96699,42,24.033)"><stop offset="0" style="stop-color:rgb(255,0,0);stop-opacity:0.2"/><stop offset="1" style="stop-color:rgb(255,0,0);stop-opacity:0"/></radialGradient>
        <radialGradient id="_Radial2" cx="0" cy="0" r="1" gradientUnits="userSpaceOnUse" gradientTransform="matrix(3.96699,0,0,3.96699,11,24.033)"><stop offset="0" style="stop-color:rgb(255,0,0);stop-opacity:0.2"/><stop offset="1" style="stop-color:rgb(255,0,0);stop-opacity:0"/></radialGradient>
    </defs>
</svg>
